<?xml version="1.0" standalone="no"?>
<!DOCTYPE svg PUBLIC "-//W3C//DTD SVG 20010904//EN"
 "http://www.w3.org/TR/2001/REC-SVG-20010904/DTD/svg10.dtd">
<svg version="1.0" xmlns="http://www.w3.org/2000/svg"
 width="96.000000pt" height="96.000000pt" viewBox="0 0 96.000000 96.000000"
 preserveAspectRatio="xMidYMid meet">

<g transform="translate(0.000000,96.000000) scale(0.100000,-0.100000)"
fill="#000000" stroke="none">
<path d="M150 822 c-65 -32 -70 -56 -70 -328 0 -221 2 -242 18 -257 27 -24 42
-21 97 18 l49 34 18 -30 c29 -48 70 -59 223 -59 l135 0 96 -70 c53 -39 104
-70 114 -70 9 0 24 8 33 18 15 16 17 49 17 256 0 257 -5 289 -54 321 -14 9
-43 19 -64 22 -37 5 -40 8 -45 45 -3 21 -13 50 -22 64 -31 48 -66 54 -297 54
-183 0 -218 -3 -248 -18z m487 -64 c22 -20 23 -28 23 -157 0 -186 6 -181 -194
-182 l-151 0 -85 -64 -85 -63 -3 221 c-3 292 -28 267 257 267 207 0 216 -1
238 -22z m160 -160 c23 -21 23 -24 23 -245 l0 -223 -90 65 -90 65 -147 0
c-137 0 -148 1 -170 22 -27 26 -28 35 -6 60 14 16 33 18 157 18 114 0 148 3
176 18 51 25 70 71 70 165 0 77 0 77 27 77 15 0 37 -10 50 -22z"/>
</g>
</svg>
