<?xml version="1.0" standalone="no"?>
<!DOCTYPE svg PUBLIC "-//W3C//DTD SVG 20010904//EN"
 "http://www.w3.org/TR/2001/REC-SVG-20010904/DTD/svg10.dtd">
<svg version="1.0" xmlns="http://www.w3.org/2000/svg"
 width="512.000000pt" height="512.000000pt" viewBox="0 0 512.000000 512.000000"
 preserveAspectRatio="xMidYMid meet">

<g transform="translate(0.000000,512.000000) scale(0.100000,-0.100000)"
fill="#000000" stroke="none">
<path d="M2380 4794 c-403 -47 -687 -140 -985 -322 -471 -287 -832 -757 -983
-1282 -67 -232 -86 -372 -86 -630 0 -258 19 -398 86 -630 216 -751 836 -1349
1595 -1539 214 -54 316 -66 558 -65 238 0 365 16 569 69 616 160 1157 605
1436 1180 104 215 161 392 202 635 29 168 31 510 5 675 -82 506 -307 941 -664
1286 -334 322 -730 521 -1198 600 -115 19 -445 34 -535 23z m330 -214 c948
-72 1708 -781 1856 -1730 22 -143 22 -440 0 -580 -130 -827 -715 -1472 -1517
-1676 -231 -58 -546 -74 -774 -40 -903 138 -1587 822 -1721 1722 -22 146 -22
433 0 574 106 675 509 1228 1111 1526 223 110 485 184 721 203 145 12 175 12
324 1z"/>
<path d="M1842 3300 c-57 -13 -108 -55 -136 -111 -44 -89 -31 -175 37 -243 70
-70 157 -84 246 -40 127 64 155 219 59 328 -29 34 -53 50 -91 61 -55 16 -66
17 -115 5z"/>
<path d="M3168 3298 c-21 -5 -58 -28 -82 -50 -113 -98 -89 -275 45 -342 88
-44 176 -30 245 39 152 152 0 411 -208 353z"/>
<path d="M1454 2016 c-41 -18 -64 -52 -64 -96 0 -45 23 -78 66 -96 50 -21
2158 -21 2208 0 43 18 66 51 66 96 0 45 -23 78 -66 96 -49 21 -2163 20 -2210
0z"/>
</g>
</svg>
