<?xml version="1.0" standalone="no"?>
<!DOCTYPE svg PUBLIC "-//W3C//DTD SVG 20010904//EN"
 "http://www.w3.org/TR/2001/REC-SVG-20010904/DTD/svg10.dtd">
<svg version="1.0" xmlns="http://www.w3.org/2000/svg"
 width="512.000000pt" height="512.000000pt" viewBox="0 0 512.000000 512.000000"
 preserveAspectRatio="xMidYMid meet">

<g transform="translate(0.000000,512.000000) scale(0.100000,-0.100000)"
fill="#000000" stroke="none">
<path d="M2330 5110 c-494 -48 -950 -230 -1350 -538 -195 -150 -448 -432 -594
-662 -63 -99 -186 -351 -230 -471 -49 -134 -102 -340 -128 -499 -31 -195 -31
-565 0 -760 45 -276 116 -498 237 -745 132 -269 269 -460 489 -681 221 -220
412 -357 681 -489 247 -121 469 -192 745 -237 195 -31 565 -31 760 0 276 45
498 116 745 237 269 132 460 269 681 489 220 221 357 412 489 681 88 179 132
296 180 476 63 240 78 371 78 649 0 278 -15 409 -78 649 -48 180 -92 297 -180
476 -132 269 -269 460 -489 681 -221 220 -412 357 -681 489 -246 121 -474 193
-740 235 -147 23 -475 34 -615 20z m470 -280 c474 -56 889 -236 1247 -542 790
-675 1020 -1814 556 -2742 -288 -576 -799 -1001 -1416 -1180 -398 -115 -856
-115 -1254 0 -622 180 -1130 606 -1418 1189 -154 310 -221 581 -232 931 -6
205 4 344 38 516 191 961 977 1695 1954 1823 122 16 410 19 525 5z"/>
<path d="M1647 3399 c-82 -19 -146 -68 -185 -143 -22 -42 -27 -64 -27 -126 0
-65 4 -82 29 -128 52 -93 136 -143 241 -144 151 -1 262 103 273 255 10 141
-77 256 -216 286 -60 12 -62 12 -115 0z"/>
<path d="M3348 3396 c-197 -54 -271 -303 -133 -449 134 -141 363 -110 449 61
106 209 -91 450 -316 388z"/>
<path d="M2397 2170 c-384 -48 -701 -202 -964 -466 -68 -67 -123 -129 -123
-136 1 -11 102 -94 190 -156 16 -12 29 -2 126 96 269 269 605 402 979 389 353
-12 634 -136 889 -390 97 -97 110 -107 126 -95 83 58 189 145 190 155 0 6 -43
57 -97 113 -229 241 -527 405 -853 470 -119 24 -355 34 -463 20z"/>
</g>
</svg>
