<?xml version="1.0" standalone="no"?>
<!DOCTYPE svg PUBLIC "-//W3C//DTD SVG 20010904//EN"
 "http://www.w3.org/TR/2001/REC-SVG-20010904/DTD/svg10.dtd">
<svg version="1.0" xmlns="http://www.w3.org/2000/svg"
 width="512.000000pt" height="512.000000pt" viewBox="0 0 512.000000 512.000000"
 preserveAspectRatio="xMidYMid meet">

<g transform="translate(0.000000,512.000000) scale(0.100000,-0.100000)"
fill="#000000" stroke="none">
<path d="M2330 5110 c-494 -48 -950 -230 -1350 -538 -195 -150 -448 -432 -594
-662 -63 -99 -186 -351 -230 -471 -49 -134 -102 -340 -128 -499 -31 -195 -31
-565 0 -760 45 -276 116 -498 237 -745 132 -269 269 -460 489 -681 221 -220
412 -357 681 -489 247 -121 469 -192 745 -237 195 -31 565 -31 760 0 276 45
498 116 745 237 269 132 460 269 681 489 220 221 357 412 489 681 88 179 132
296 180 476 63 240 78 371 78 649 0 278 -15 409 -78 649 -48 180 -92 297 -180
476 -132 269 -269 460 -489 681 -221 220 -412 357 -681 489 -246 121 -474 193
-740 235 -147 23 -475 34 -615 20z m550 -226 c339 -49 662 -168 950 -352 253
-161 541 -449 702 -702 144 -226 262 -507 317 -757 41 -185 53 -302 53 -513 0
-275 -29 -467 -108 -713 -120 -371 -300 -663 -579 -942 -279 -279 -571 -459
-942 -579 -246 -79 -438 -108 -713 -108 -275 0 -467 29 -713 108 -371 120
-663 300 -942 579 -374 373 -589 803 -670 1340 -23 151 -23 479 0 630 54 355
169 667 353 955 161 253 449 541 702 702 475 303 1045 429 1590 352z"/>
<path d="M1630 3399 c-117 -47 -169 -191 -109 -299 70 -127 246 -148 343 -40
123 136 25 351 -159 349 -27 0 -61 -5 -75 -10z"/>
<path d="M3325 3392 c-216 -101 -128 -420 110 -400 194 16 258 269 97 382 -55
39 -146 47 -207 18z"/>
<path d="M1139 2101 c-24 -24 -29 -38 -29 -75 0 -109 128 -402 246 -563 82
-112 253 -277 364 -351 224 -150 455 -230 725 -252 681 -55 1311 362 1529
1013 38 115 45 180 21 213 -35 51 -127 55 -164 8 -11 -14 -27 -51 -36 -82 -64
-227 -174 -413 -334 -572 -142 -140 -291 -234 -471 -297 -163 -58 -228 -68
-430 -68 -202 0 -267 10 -430 68 -375 131 -672 440 -790 822 -12 39 -26 83
-32 98 -27 70 -116 90 -169 38z"/>
</g>
</svg>
